<svg width="1084" height="451" viewBox="0 0 1084 451" fill="none" xmlns="http://www.w3.org/2000/svg">
<g clip-path="url(#clip0_3_134)">
<mask id="mask0_3_134" style="mask-type:luminance" maskUnits="userSpaceOnUse" x="330" y="303" width="754" height="134">
<path d="M330.146 303.88H1084V436.797H330.146V303.88Z" fill="white"></path>
</mask>
<g mask="url(#mask0_3_134)">
<mask id="mask1_3_134" style="mask-type:luminance" maskUnits="userSpaceOnUse" x="330" y="303" width="755" height="134">
<path d="M1039.58 303.88H330.37V436.417H331.589L1039.38 436.266C1065.01 436.266 1084 406.568 1084 369.958C1084.08 333.578 1065.09 303.88 1039.58 303.88Z" fill="white"></path>
</mask>
<g mask="url(#mask1_3_134)">
<path d="M289.13 303.88H1084.36V436.797H289.13V303.88Z" fill="#16879C"></path>
</g>
</g>
<mask id="mask2_3_134" style="mask-type:luminance" maskUnits="userSpaceOnUse" x="289" y="303" width="86" height="134">
<path d="M289.13 303.88H374.198V436.797H289.13V303.88Z" fill="white"></path>
</mask>
<g mask="url(#mask2_3_134)">
<mask id="mask3_3_134" style="mask-type:luminance" maskUnits="userSpaceOnUse" x="289" y="303" width="86" height="134">
<path d="M370.552 343.677L369.641 340.719C369.333 339.729 369.031 338.818 368.651 337.906V337.833C368.349 336.922 367.969 336.01 367.589 335.099V335.021C367.208 334.109 366.828 333.276 366.448 332.365V332.286C366.068 331.453 365.693 330.542 365.235 329.703V329.63C364.854 328.792 364.401 327.958 363.943 327.198V327.12C363.49 326.286 363.031 325.526 362.578 324.766C362.12 324.005 361.667 323.25 361.136 322.49C353.615 311.172 343.438 304.109 332.12 303.88H331.589C308.12 303.88 289.13 333.578 289.13 370.187C289.13 406.797 308.12 436.495 331.589 436.495H332.12C355.36 436.036 374.047 406.568 374.047 370.266C374.12 360.771 372.828 351.807 370.552 343.677Z" fill="white"></path>
</mask>
<g mask="url(#mask3_3_134)">
<path d="M289.13 303.88H1084.36V436.797H289.13V303.88Z" fill="#16879C"></path>
</g>
</g>
<path d="M144.787 0.50001C145.339 0.588552 145.932 0.796885 146.479 0.796885C158.042 1.34897 169.432 3.00522 180.568 6.22397C195.177 10.4219 208.771 16.8281 221.307 25.4323C230.833 31.9636 239.516 39.4688 247.141 48.2031C254.464 56.599 261.115 65.5 266.109 75.5104C268.906 81.0625 271.615 86.6615 273.901 92.4271C277.333 101.12 279.703 110.193 281.188 119.479C282.5 127.703 283.302 135.969 283.135 144.323C283.005 149.536 282.417 154.797 281.948 160.01C281.146 168.875 279.281 177.521 276.698 186C274.875 192.021 272.719 197.958 270.177 203.724C267.635 209.578 264.672 215.26 261.537 220.813C257.724 227.599 253.026 233.745 247.984 239.641C242.651 245.87 238.797 252.995 235.495 260.5C231.896 268.682 229.396 277.203 227.703 285.938C225.964 294.885 225.328 303.917 225.287 313.031C225.245 320.156 223.172 326.688 219.318 332.708C214.828 339.62 208.688 344.75 201.703 348.906C199.755 350.047 197.719 351.026 195.771 352.125C195.349 352.339 195.01 352.635 194.375 353.057C195.391 353.526 196.151 353.906 196.958 354.245C202.042 356.453 206.698 359.333 210.552 363.365C215.927 368.917 219.063 375.615 219.443 383.375C219.656 388.25 218.219 392.828 215.719 397.115C212.162 403.302 206.912 407.5 200.599 410.594C200.135 410.807 199.755 411.104 199.12 411.484C199.797 412.036 200.391 412.547 200.979 413.01C207.589 417.891 213.005 423.865 217.453 430.693C221.943 437.646 219.104 446.125 211.609 449.266C206.104 451.552 199.922 448.672 197.469 444.938C193.953 439.599 189.672 435.021 184.339 431.5C178.198 427.385 171.339 424.969 164.182 423.359C153.214 420.901 142.031 420.01 130.813 419.755C118.787 419.458 106.76 419.417 94.7345 419.203C91.5157 419.161 88.5938 418.313 85.9688 416.193C79.3595 410.849 80.5886 399.698 88.2084 395.927C90.2865 394.906 92.3595 394.484 94.6042 394.484C107.859 394.484 121.156 394.568 134.412 394.401C143.135 394.313 151.901 394.063 160.625 393.635C167.823 393.297 175.021 392.703 182.01 391.052C185.146 390.286 188.318 389.354 191.115 387.87C195.307 385.667 195.307 383.969 192.047 380.661C189.208 377.776 185.526 376.339 181.755 375.193C173.37 372.563 164.688 371.505 155.964 370.74C135.26 368.917 114.464 368.833 93.7136 368.703C87.6199 368.661 82.1563 363.573 81.6876 357.766C81.0938 350.344 86.3907 344.792 92.1511 344.281C95.9584 343.943 99.8126 344.156 103.667 343.984C110.526 343.688 117.385 343.432 124.203 342.969C130.516 342.542 136.87 342.036 143.135 341.146C150.078 340.172 156.984 338.771 163.844 337.37C170.448 336.016 176.844 333.896 182.984 331.182C187.557 329.146 191.917 326.729 195.563 323.25C198.865 320.115 200.771 316.469 200.854 311.677C200.979 304.849 201.531 297.979 202.292 291.198C202.927 285.688 204.073 280.214 205.26 274.786C208.01 262.109 212.755 250.156 219.104 238.833C222.453 232.896 226.26 227.344 230.75 222.214C235.073 217.292 238.63 211.823 241.891 206.141C245.193 200.417 247.943 194.396 250.188 188.208C253.323 179.599 255.651 170.781 257.047 161.708C258.318 153.484 258.87 145.255 258.448 136.948C258.193 131.729 257.474 126.516 256.625 121.344C255.057 111.974 252.094 103.026 248.24 94.3333C245.318 87.7188 241.677 81.5313 237.568 75.5938C234.099 70.5886 230.203 65.8854 226.01 61.474C219.953 55.1563 213.302 49.6458 206.021 44.8125C197.677 39.2552 188.745 34.9323 179.255 31.7083C170.87 28.8698 162.318 27.0469 153.51 26.1563C147.37 25.5208 141.271 25.3906 135.13 25.7292C127.594 26.1563 120.141 27.2552 112.854 29.1667C105.448 31.1146 98.2449 33.7031 91.3022 37.0521C82.4115 41.375 74.1928 46.7604 66.6147 53.0781C61.8282 57.0625 57.3803 61.4323 53.3595 66.1354C48.3595 71.9896 43.9167 78.3073 40.1042 85.0469C35.0209 93.9531 31.2136 103.365 28.797 113.286C27.3595 119.094 26.4272 125.073 25.7917 131.01C25.198 136.479 25.073 141.99 25.2813 147.505C25.4532 152.635 26.0886 157.807 26.9792 162.854C27.8647 167.896 29.0938 172.943 30.6199 177.859C32.0157 182.354 33.6667 186.849 35.698 191.089C38.1147 196.177 40.823 201.224 43.8751 205.974C46.7084 210.427 50.1824 214.411 53.2761 218.734C56.1095 222.719 59.1199 226.62 61.5313 230.859C64.5834 236.245 67.2501 241.885 69.7917 247.568C72.8386 254.438 75.0001 261.604 76.9897 268.854C78.724 275.172 81.6876 280.682 87.6615 284.031C90.7501 285.771 94.1407 286.703 97.6563 286.786C105.193 287 112.729 287 120.307 287.083C124.927 287.125 128.734 285.391 131.87 281.995C141.651 271.396 151.052 260.5 159.313 248.672C167.104 237.563 174.302 226.073 179.979 213.734C183.068 206.99 186.031 200.208 188.615 193.255C191.37 185.792 193.359 178.031 193.021 169.932C192.807 164.932 191.75 160.141 188.531 156.109C184.042 150.427 174.979 147.672 167.948 150.177C162.531 152.125 157.828 155.135 153.932 159.458C153.214 160.266 153.13 161.031 153.385 162.005C154.443 165.99 155.333 170.016 154.99 174.13C154.401 180.323 151.604 185.411 146.313 188.802C142.162 191.474 137.714 190.839 133.734 187.401C128.484 182.906 126.703 177.224 127.339 170.484C127.677 167.052 128.313 163.745 129.37 160.479C129.5 160.141 129.417 159.589 129.203 159.292C125.901 154.542 121.792 150.766 116.162 149.073C112.094 147.844 108.031 148.521 104.135 149.964C96.2553 152.844 92.2761 158.911 91.0053 166.964C90.0313 173.37 91.0886 179.641 92.8282 185.792C95.073 193.76 99.0522 200.927 103.797 207.625C107.563 212.927 111.542 218.099 115.734 223.104C119.422 227.557 123.526 231.667 127.38 235.995C130.682 239.724 131.448 244.047 129.625 248.625C127.891 253.078 124.458 255.708 119.63 256.302C114.849 256.854 111.25 254.734 108.198 251.297C103.964 246.594 99.5574 242.016 95.4532 237.135C88.2553 228.573 81.6042 219.583 76.3126 209.578C71.7813 201.052 68.6042 192.151 67.0365 182.651C65.5574 173.578 65.6824 164.547 68.4792 155.688C72.6251 142.672 80.8438 133.214 93.4636 127.745C99.474 125.115 105.745 123.969 112.224 123.844C118.87 123.719 124.839 125.964 130.344 129.568C134.287 132.156 137.844 135.208 140.974 138.724C141.781 139.615 142.328 139.745 143.349 138.813C147.198 135.292 151.349 132.198 155.88 129.609C163.25 125.411 171.083 123.63 179.594 124.99C187.724 126.302 195.052 129.313 201.406 134.615C206.484 138.813 210.339 143.943 213.005 149.964C214.828 154.031 216.057 158.271 216.609 162.682C217.198 167.432 217.583 172.182 216.859 176.974C216.354 180.49 216.141 184.094 215.25 187.573C213.729 193.552 212.078 199.484 209.917 205.25C207.25 212.292 204.287 219.245 200.979 225.984C197.891 232.302 194.458 238.536 190.651 244.474C184.849 253.547 178.833 262.495 172.568 271.271C167.401 278.479 161.938 285.474 156.307 292.302C151.776 297.813 146.693 302.943 140.635 306.885C136.953 309.302 132.927 311.042 128.484 311.125C118.021 311.297 107.563 311.505 97.1459 311.25C89.5678 311.083 82.2397 309.13 75.5053 305.401C69.5365 302.052 64.6667 297.557 60.7709 291.917C56.4063 285.557 54.1199 278.391 51.9636 271.099C50.224 265.208 47.9792 259.396 45.6095 253.714C42.7292 246.802 39.047 240.359 34.4324 234.422C31.0001 229.974 27.4428 225.646 24.2657 220.984C16.3074 209.281 10.4167 196.563 6.35425 182.995C3.68758 174.089 1.948 165.057 0.97404 155.813C0.635497 152.844 0.593831 149.88 0.38029 146.87C0.338623 146.318 0.171956 145.807 0.088623 145.297C0.088623 143.349 0.088623 141.354 0.088623 139.406C0.25529 137.75 0.468831 136.141 0.635498 134.484C1.14592 129.568 1.56779 124.651 2.24487 119.776C3.34904 111.76 5.42196 104 8.04696 96.3698C11.1407 87.4219 15.0782 78.8594 19.9063 70.6719C24.224 63.3386 29.1355 56.4688 34.6824 50.0261C39.849 43.9636 45.5261 38.4479 51.6251 33.3646C60.2605 26.1979 69.6199 20.0886 79.7397 15.1302C89.6928 10.2552 100.026 6.60939 110.865 4.19272C118.49 2.4948 126.156 1.34897 133.948 1.01043C135.599 0.927094 137.208 0.671885 138.818 0.458344C140.849 0.50001 142.797 0.50001 144.787 0.50001Z" fill="#16879C"></path>
<path d="M422.617 108.476V130.684H356.492V37.8926H421.43V60.1218H381.971V73.1843H415.68V93.8301H381.971V108.476H422.617Z" fill="#16879C"></path>
<path d="M434.489 130.684V37.8926H498.135V60.1218H459.968V75.5384H491.073V96.1843H459.968V130.684H434.489Z" fill="#16879C"></path>
<path d="M507.522 130.684V37.8926H571.168V60.1218H533.001V75.5384H564.105V96.1843H533.001V130.684H507.522Z" fill="#16879C"></path>
<path d="M646.68 108.476V130.684H580.555V37.8926H645.492V60.1218H606.034V73.1843H639.742V93.8301H606.034V108.476H646.68Z" fill="#16879C"></path>
<path d="M653.448 83.4968C653.448 77.8458 654.448 72.278 656.448 66.7885C658.458 61.2885 661.406 56.3666 665.281 52.0176C669.156 47.6583 673.854 44.1322 679.385 41.4343C684.927 38.726 691.224 37.3718 698.281 37.3718C706.557 37.3718 713.786 39.226 719.969 42.9343C726.146 46.6322 730.724 51.528 733.698 57.6218L714.219 71.476C713.427 69.2155 712.396 67.3458 711.135 65.8718C709.885 64.3874 708.515 63.2051 707.031 62.3301C705.542 61.4551 703.974 60.8458 702.323 60.4968C700.667 60.153 699.146 59.976 697.76 59.976C694.521 59.976 691.75 60.6999 689.448 62.1426C687.14 63.5749 685.224 65.4499 683.698 67.7676C682.167 70.0749 681.057 72.6843 680.364 75.601C679.667 78.5176 679.323 81.4135 679.323 84.2885C679.323 87.5124 679.729 90.6114 680.552 93.5801C681.385 96.5385 682.604 99.153 684.219 101.413C685.828 103.679 687.786 105.486 690.094 106.83C692.411 108.179 695.052 108.851 698.01 108.851C699.495 108.851 701.021 108.658 702.594 108.268C704.161 107.882 705.661 107.226 707.094 106.309C708.536 105.393 709.844 104.221 711.01 102.788C712.187 101.346 713.125 99.5801 713.823 97.4968L734.614 109.913C733.292 113.304 731.307 116.351 728.656 119.059C726 121.757 722.974 124.018 719.573 125.851C716.167 127.684 712.552 129.08 708.719 130.038C704.885 130.997 701.14 131.476 697.489 131.476C691.042 131.476 685.12 130.101 679.719 127.351C674.312 124.601 669.677 120.966 665.802 116.434C661.927 111.908 658.896 106.768 656.719 101.018C654.536 95.2676 653.448 89.4291 653.448 83.4968Z" fill="#16879C"></path>
<path d="M816.397 60.1218H789.731V130.684H764.252V60.1218H737.46V37.8926H816.397V60.1218Z" fill="#16879C"></path>
<path d="M825.651 130.684V37.8926H851.131V130.684H825.651Z" fill="#16879C"></path>
<path d="M884.838 37.8926L903.004 98.6634L920.9 37.8926H947.692L913.588 130.684H892.421L857.921 37.8926H884.838Z" fill="#16879C"></path>
<path d="M1020.73 108.476V130.684H954.602V37.8926H1019.54V60.1218H980.081V73.1843H1013.79V93.8301H980.081V108.476H1020.73Z" fill="#16879C"></path>
<path d="M352.51 263.602L387.135 170.81H407.781L442.281 263.602H415.364L409.739 245.435H385.051L379.551 263.602H352.51ZM397.468 197.352L388.843 228.456H405.697L397.468 197.352Z" fill="#16879C"></path>
<path d="M449.196 263.602V170.81H474.675V241.394H516.758V263.602H449.196Z" fill="#16879C"></path>
<path d="M598.288 193.039H571.621V263.602H546.142V193.039H519.351V170.81H598.288V193.039Z" fill="#16879C"></path>
<path d="M607.542 263.602V170.81H650.146C654.672 170.81 658.854 171.748 662.688 173.623C666.521 175.498 669.802 177.946 672.542 180.956C675.292 183.956 677.448 187.394 679.021 191.269C680.589 195.144 681.375 199.039 681.375 202.956C681.375 208.362 680.193 213.394 677.834 218.06C675.485 222.717 672.219 226.529 668.042 229.498L688.959 263.602H660.209L642.563 235.102H633.021V263.602H607.542ZM633.021 212.894H649.084C650.651 212.894 652.11 212.029 653.459 210.289C654.818 208.539 655.5 206.097 655.5 202.956C655.5 199.737 654.714 197.279 653.146 195.581C651.573 193.888 650.006 193.039 648.438 193.039H633.021V212.894Z" fill="#16879C"></path>
<path d="M737.542 241.769C740.5 241.769 743.021 241.118 745.104 239.81C747.198 238.508 748.901 236.789 750.209 234.664C751.526 232.529 752.485 230.06 753.084 227.269C753.693 224.477 754 221.56 754 218.519V170.81H779.5V218.519C779.5 224.967 778.667 230.998 777 236.623C775.344 242.237 772.776 247.092 769.292 251.185C765.802 255.284 761.422 258.513 756.146 260.873C750.881 263.222 744.677 264.394 737.542 264.394C730.136 264.394 723.797 263.154 718.521 260.664C713.256 258.18 708.922 254.847 705.521 250.664C702.115 246.487 699.631 241.633 698.063 236.102C696.506 230.56 695.729 224.701 695.729 218.519V170.81H721.209V218.519C721.209 221.56 721.511 224.498 722.125 227.331C722.735 230.164 723.693 232.654 725 234.789C726.302 236.914 727.979 238.612 730.021 239.873C732.073 241.138 734.584 241.769 737.542 241.769Z" fill="#16879C"></path>
<path d="M793.978 263.602V170.81H819.457V263.602H793.978Z" fill="#16879C"></path>
<path d="M891.58 201.144C888.966 199.576 886.268 198.18 883.476 196.956C881.127 195.904 878.487 194.925 875.56 194.019C872.643 193.102 869.794 192.644 867.018 192.644C864.752 192.644 862.94 192.993 861.58 193.685C860.231 194.383 859.56 195.555 859.56 197.206C859.56 198.43 859.945 199.435 860.726 200.227C861.518 201.008 862.648 201.722 864.122 202.373C865.606 203.029 867.419 203.659 869.56 204.269C871.695 204.883 874.112 205.623 876.81 206.498C881.086 207.805 884.94 209.243 888.372 210.81C891.815 212.383 894.752 214.237 897.185 216.373C899.627 218.498 901.502 221.092 902.81 224.144C904.127 227.185 904.789 230.888 904.789 235.248C904.789 240.821 903.757 245.498 901.705 249.289C899.664 253.081 896.961 256.112 893.601 258.373C890.252 260.638 886.461 262.269 882.226 263.269C878.002 264.269 873.757 264.769 869.497 264.769C866.091 264.769 862.606 264.503 859.039 263.977C855.466 263.467 851.919 262.727 848.393 261.769C844.862 260.81 841.461 259.68 838.185 258.373C834.919 257.071 831.898 255.592 829.122 253.935L840.08 231.581C843.132 233.498 846.315 235.201 849.622 236.685C852.414 237.993 855.57 239.164 859.101 240.206C862.627 241.248 866.226 241.769 869.893 241.769C872.669 241.769 874.601 241.404 875.685 240.664C876.778 239.93 877.33 238.951 877.33 237.727C877.33 236.425 876.778 235.31 875.685 234.394C874.601 233.477 873.101 232.675 871.185 231.977C869.268 231.284 867.065 230.592 864.58 229.894C862.106 229.185 859.476 228.352 856.685 227.394C852.586 226.008 849.06 224.508 846.101 222.894C843.143 221.284 840.705 219.456 838.789 217.414C836.872 215.362 835.455 213.029 834.539 210.414C833.622 207.805 833.164 204.8 833.164 201.394C833.164 196.258 834.101 191.727 835.976 187.81C837.851 183.883 840.398 180.612 843.622 177.998C846.841 175.388 850.523 173.409 854.664 172.06C858.799 170.717 863.174 170.039 867.789 170.039C871.19 170.039 874.502 170.368 877.726 171.019C880.945 171.675 884.06 172.498 887.06 173.498C890.07 174.498 892.882 175.592 895.497 176.769C898.106 177.935 900.461 179.05 902.56 180.102L891.58 201.144Z" fill="#16879C"></path>
<path d="M986.17 263.602V214.727L970.628 249.102H957.024L941.483 214.727V263.602H916.003V170.81H943.837L963.837 214.456L983.962 170.81H1011.65V263.602H986.17Z" fill="#16879C"></path>
<path d="M407.468 408.417H378.906L349.468 351.646H348.989C349.682 360.578 350.031 367.396 350.031 372.104V408.417H330.739V327.833H359.177L388.489 383.833H388.823C388.307 375.708 388.052 369.188 388.052 364.271V327.833H407.468V408.417Z" fill="white"></path>
<path d="M453.711 409.521C443.321 409.521 435.253 406.76 429.503 401.229C423.753 395.703 420.878 387.828 420.878 377.604C420.878 367.062 423.534 358.974 428.857 353.333C434.19 347.698 441.795 344.875 451.67 344.875C461.086 344.875 468.357 347.328 473.482 352.229C478.607 357.135 481.17 364.198 481.17 373.417V383H442.628C442.779 386.5 444.055 389.245 446.461 391.229C448.878 393.203 452.159 394.188 456.315 394.188C460.091 394.188 463.571 393.833 466.753 393.125C469.93 392.406 473.378 391.182 477.086 389.458V404.938C473.711 406.677 470.216 407.87 466.607 408.521C463.008 409.188 458.711 409.521 453.711 409.521ZM452.44 359.521C449.909 359.521 447.795 360.328 446.086 361.938C444.378 363.536 443.378 366.042 443.086 369.458H461.607C461.524 366.448 460.659 364.036 459.024 362.229C457.399 360.427 455.201 359.521 452.44 359.521Z" fill="white"></path>
<path d="M523.895 392.479C526.796 392.479 530.27 391.766 534.311 390.333V406.042C531.405 407.292 528.645 408.182 526.02 408.708C523.395 409.25 520.317 409.521 516.791 409.521C509.551 409.521 504.337 407.75 501.145 404.208C497.947 400.656 496.353 395.203 496.353 387.854V362.125H488.791V353.354L498.395 346.583L503.957 333.458H518.061V345.979H533.374V362.125H518.061V386.417C518.061 390.458 520.004 392.479 523.895 392.479Z" fill="white"></path>
<path d="M584.499 408.417V374.354C584.499 365.979 582.02 361.792 577.062 361.792C573.53 361.792 570.937 363.271 569.27 366.229C567.603 369.188 566.77 374.104 566.77 380.979V408.417H545.208V322.667H566.77V334.833C566.77 340.349 566.468 346.635 565.874 353.688H566.874C568.926 350.453 571.364 348.177 574.187 346.854C577.02 345.536 580.312 344.875 584.062 344.875C591.046 344.875 596.478 346.891 600.353 350.917C604.228 354.932 606.166 360.557 606.166 367.792V408.417H584.499Z" fill="white"></path>
<path d="M650.939 409.521C640.549 409.521 632.481 406.76 626.731 401.229C620.981 395.703 618.106 387.828 618.106 377.604C618.106 367.062 620.762 358.974 626.085 353.333C631.418 347.698 639.023 344.875 648.898 344.875C658.314 344.875 665.585 347.328 670.71 352.229C675.835 357.135 678.398 364.198 678.398 373.417V383H639.856C640.007 386.5 641.283 389.245 643.689 391.229C646.106 393.203 649.387 394.188 653.543 394.188C657.319 394.188 660.799 393.833 663.981 393.125C667.158 392.406 670.606 391.182 674.314 389.458V404.938C670.939 406.677 667.444 407.87 663.835 408.521C660.236 409.188 655.939 409.521 650.939 409.521ZM649.668 359.521C647.137 359.521 645.023 360.328 643.314 361.938C641.606 363.536 640.606 366.042 640.314 369.458H658.835C658.752 366.448 657.887 364.036 656.252 362.229C654.627 360.427 652.429 359.521 649.668 359.521Z" fill="white"></path>
<path d="M728.248 344.875C730.123 344.875 731.899 345.021 733.581 345.312L734.79 345.521L732.873 365.875C731.107 365.432 728.665 365.208 725.54 365.208C720.831 365.208 717.415 366.286 715.29 368.438C713.165 370.578 712.102 373.667 712.102 377.708V408.417H690.54V345.979H706.581L709.935 355.938H710.998C712.79 352.635 715.29 349.969 718.498 347.938C721.717 345.896 724.967 344.875 728.248 344.875Z" fill="white"></path>
<path d="M765.045 408.417H743.482V322.667H765.045V408.417Z" fill="white"></path>
<path d="M820.682 408.417L816.557 400.146H816.12C813.214 403.745 810.255 406.208 807.245 407.542C804.229 408.859 800.333 409.521 795.557 409.521C789.682 409.521 785.047 407.76 781.662 404.229C778.287 400.703 776.599 395.745 776.599 389.354C776.599 382.703 778.912 377.75 783.537 374.5C788.162 371.25 794.87 369.417 803.662 369L814.078 368.688V367.792C814.078 362.656 811.542 360.083 806.474 360.083C801.917 360.083 796.125 361.625 789.099 364.708L782.87 350.5C790.146 346.75 799.333 344.875 810.432 344.875C818.443 344.875 824.646 346.865 829.037 350.833C833.422 354.792 835.62 360.333 835.62 367.458V408.417H820.682ZM804.703 394.312C807.313 394.312 809.542 393.49 811.391 391.833C813.25 390.182 814.182 388.031 814.182 385.375V380.521L809.224 380.75C802.125 381 798.578 383.615 798.578 388.583C798.578 392.406 800.62 394.312 804.703 394.312Z" fill="white"></path>
<path d="M889.667 408.417V374.354C889.667 370.203 889.068 367.073 887.875 364.958C886.677 362.849 884.755 361.792 882.104 361.792C878.464 361.792 875.839 363.245 874.229 366.146C872.615 369.052 871.812 374.031 871.812 381.083V408.417H850.25V345.979H866.521L869.208 353.688H870.479C872.312 350.745 874.854 348.542 878.104 347.083C881.365 345.615 885.109 344.875 889.333 344.875C896.234 344.875 901.604 346.875 905.438 350.875C909.281 354.875 911.208 360.516 911.208 367.792V408.417H889.667Z" fill="white"></path>
<path d="M945.232 409.521C940.784 409.521 936.898 408.26 933.565 405.729C930.242 403.188 927.674 399.458 925.857 394.542C924.049 389.615 923.148 383.854 923.148 377.271C923.148 367.135 925.18 359.203 929.253 353.479C933.336 347.745 938.94 344.875 946.065 344.875C949.549 344.875 952.607 345.578 955.232 346.979C957.867 348.37 960.273 350.719 962.44 354.021H962.878C962.18 349.135 961.836 344.245 961.836 339.354V322.667H983.544V408.417H967.294L962.648 400.542H961.836C958.112 406.531 952.576 409.521 945.232 409.521ZM954.065 392.479C957.508 392.479 959.94 391.396 961.357 389.229C962.773 387.063 963.534 383.724 963.648 379.208V377.5C963.648 371.99 962.857 368.063 961.273 365.729C959.69 363.396 957.211 362.229 953.836 362.229C951.003 362.229 948.799 363.563 947.232 366.229C945.674 368.896 944.898 372.688 944.898 377.604C944.898 382.453 945.69 386.146 947.273 388.688C948.857 391.219 951.117 392.479 954.065 392.479Z" fill="white"></path>
<path d="M1046.62 389.229C1046.62 395.927 1044.34 400.979 1039.79 404.396C1035.23 407.812 1028.69 409.521 1020.16 409.521C1015.54 409.521 1011.52 409.271 1008.1 408.771C1004.68 408.271 1001.19 407.365 997.621 406.042V388.792C1000.97 390.266 1004.63 391.479 1008.62 392.438C1012.61 393.396 1016.16 393.875 1019.29 393.875C1023.95 393.875 1026.29 392.807 1026.29 390.667C1026.29 389.573 1025.63 388.594 1024.33 387.729C1023.02 386.854 1019.23 385.177 1012.95 382.688C1007.22 380.328 1003.21 377.656 1000.93 374.667C998.653 371.667 997.517 367.87 997.517 363.271C997.517 357.469 999.751 352.953 1004.23 349.729C1008.71 346.495 1015.05 344.875 1023.25 344.875C1027.37 344.875 1031.24 345.328 1034.85 346.229C1038.48 347.12 1042.23 348.432 1046.12 350.167L1040.29 364.042C1037.41 362.766 1034.38 361.677 1031.18 360.771C1027.99 359.87 1025.38 359.417 1023.37 359.417C1019.84 359.417 1018.08 360.281 1018.08 362C1018.08 363.073 1018.69 363.99 1019.91 364.75C1021.15 365.5 1024.7 367.031 1030.58 369.333C1034.95 371.141 1038.21 372.911 1040.35 374.646C1042.5 376.37 1044.08 378.396 1045.1 380.729C1046.11 383.062 1046.62 385.896 1046.62 389.229Z" fill="white"></path>
</g>
<defs>
<clipPath id="clip0_3_134">
<rect width="1084" height="451" fill="white"></rect>
</clipPath>
</defs>
</svg>